<svg xmlns="http://www.w3.org/2000/svg" xmlns:xlink="http://www.w3.org/1999/xlink" viewBox="0 0 536 116">
  <defs>
    <style>
      .cls-1 {
        clip-path: url(#clip-SWE_TM-logo-on-dark);
      }

      .cls-2 {
        fill: #fff;
      }

      .cls-3 {
        fill: #85ea2d;
      }

      .cls-4 {
        fill: #173647;
      }
    </style>
    <clipPath id="clip-SWE_TM-logo-on-dark">
      <rect width="536" height="116"/>
    </clipPath>
  </defs>
  <g id="SWE_TM-logo-on-dark" class="cls-1">
    <g id="SWE_In-Product">
      <path id="Path_3002" data-name="Path 3002" class="cls-2" d="M528.911,70.857h-.7V67.176h-1.26v-.6h3.219v.6h-1.26Z"/>
      <path id="Path_3003" data-name="Path 3003" class="cls-2" d="M532.979,70.857l-1.242-3.576h-.023q.049.8.05,1.494v2.082h-.636V66.574h.987l1.19,3.408h.017l1.225-3.408h.99v4.283h-.674V68.74q0-.319.016-.832t.028-.621h-.023l-1.286,3.57Z"/>
      <path id="Path_3004" data-name="Path 3004" class="cls-3" d="M50.027,97.669A47.642,47.642,0,1,1,97.67,50.027,47.642,47.642,0,0,1,50.027,97.669Z"/>
      <path id="Path_3005" data-name="Path 3005" class="cls-3" d="M50.027,4.769A45.258,45.258,0,1,1,4.769,50.027,45.258,45.258,0,0,1,50.027,4.769m0-4.769a50.027,50.027,0,1,0,50.027,50.027A50.027,50.027,0,0,0,50.027,0Z"/>
      <path id="Path_3006" data-name="Path 3006" class="cls-4" d="M31.5,33.854c-.154,1.712.058,3.482-.057,5.213a42.665,42.665,0,0,1-.693,5.156,9.532,9.532,0,0,1-4.1,5.829c4.078,2.654,4.539,6.771,4.809,10.946.135,2.25.077,4.52.308,6.752.173,1.731.846,2.174,2.636,2.231.731.02,1.48,0,2.327,0V75.33c-5.29.9-9.657-.6-10.734-5.079a30.76,30.76,0,0,1-.654-5c-.116-1.789.076-3.578-.058-5.367-.385-4.906-1.02-6.56-5.713-6.791v-6.1a9.189,9.189,0,0,1,1.019-.173c2.577-.135,3.674-.924,4.232-3.463a29.573,29.573,0,0,0,.481-4.329,81.809,81.809,0,0,1,.6-8.406c.674-3.982,3.136-5.906,7.234-6.137,1.154-.057,2.327,0,3.655,0v5.464c-.558.038-1.039.115-1.539.115C31.925,29.949,31.751,31.084,31.5,33.854Zm6.407,12.658H37.83a3.515,3.515,0,1,0-.347,7.021h.231a3.461,3.461,0,0,0,3.655-3.251V50.09a3.523,3.523,0,0,0-3.461-3.578Zm12.061,0a3.373,3.373,0,0,0-3.482,3.251,1.79,1.79,0,0,0,.02.327,3.3,3.3,0,0,0,3.578,3.443,3.264,3.264,0,0,0,3.444-3.558,3.309,3.309,0,0,0-3.559-3.463Zm12.351,0a3.592,3.592,0,0,0-3.655,3.482A3.529,3.529,0,0,0,62.2,53.533h.039c1.769.309,3.559-1.4,3.674-3.462a3.571,3.571,0,0,0-3.593-3.559Zm16.948.288c-2.232-.1-3.348-.846-3.9-2.962a21.523,21.523,0,0,1-.635-4.136c-.154-2.578-.135-5.175-.308-7.753-.4-6.117-4.828-8.252-11.254-7.195v5.31c1.019,0,1.808,0,2.6.019,1.366.019,2.4.539,2.539,2.059.136,1.385.136,2.789.27,4.193.269,2.79.423,5.618.9,8.369A8.715,8.715,0,0,0,73.4,50.052c-3.4,2.289-4.4,5.559-4.578,9.234-.1,2.52-.154,5.059-.289,7.6-.115,2.308-.923,3.058-3.251,3.116-.653.019-1.288.077-2.019.115v5.445c1.366,0,2.616.077,3.866,0,3.886-.231,6.233-2.117,7-5.887A48.9,48.9,0,0,0,74.7,63.4c.135-1.923.116-3.866.309-5.771.288-2.982,1.654-4.213,4.635-4.4a4.037,4.037,0,0,0,.828-.192v-6.1c-.5-.058-.844-.115-1.209-.135Z"/>
      <path id="Path_3007" data-name="Path 3007" class="cls-2" d="M151.972,58.122a11.231,11.231,0,0,1-4.383,9.425q-4.385,3.381-11.9,3.381-8.14,0-12.523-2.1V63.7a32.95,32.95,0,0,0,6.137,1.879,32.279,32.279,0,0,0,6.574.689q5.323,0,8.015-2.02a6.629,6.629,0,0,0,2.693-5.62,7.216,7.216,0,0,0-.955-3.9,8.868,8.868,0,0,0-3.194-2.8,44.614,44.614,0,0,0-6.809-2.911q-6.388-2.286-9.127-5.417a11.959,11.959,0,0,1-2.739-8.171A10.164,10.164,0,0,1,127.739,27q3.976-3.131,10.52-3.131a31,31,0,0,1,12.555,2.5L149.154,31a28.377,28.377,0,0,0-11.02-2.38,10.665,10.665,0,0,0-6.607,1.816,5.985,5.985,0,0,0-2.379,5.041,7.733,7.733,0,0,0,.876,3.9,8.259,8.259,0,0,0,2.959,2.786,36.732,36.732,0,0,0,6.371,2.8q7.2,2.568,9.91,5.509a10.843,10.843,0,0,1,2.708,7.647Z"/>
      <path id="Path_3008" data-name="Path 3008" class="cls-2" d="M184.988,70.3,178.7,50.17q-.6-1.848-2.223-8.391h-.25q-1.254,5.479-2.192,8.453L167.549,70.3h-6.012l-9.361-34.316h5.448q3.318,12.932,5.056,19.694a79.655,79.655,0,0,1,1.988,9.111h.251q.343-1.784,1.111-4.618t1.331-4.493l6.293-19.694h5.635l6.137,19.694a66.551,66.551,0,0,1,2.38,9.049h.25a33.338,33.338,0,0,1,.673-3.476q.547-2.347,6.528-25.267h5.385L191.156,70.3Z"/>
      <path id="Path_3009" data-name="Path 3009" class="cls-2" d="M224.815,70.3l-1.033-4.885h-.251a14.446,14.446,0,0,1-5.119,4.368,15.6,15.6,0,0,1-6.372,1.143q-5.1,0-8-2.63t-2.9-7.484q0-10.394,16.625-10.894l5.824-.189V47.6q0-4.04-1.738-5.964T216.3,39.713a22.644,22.644,0,0,0-9.706,2.63L205,38.366a24.492,24.492,0,0,1,5.558-2.16,24.094,24.094,0,0,1,6.058-.782q6.137,0,9.1,2.723t2.959,8.736V70.3Zm-11.741-3.663a10.548,10.548,0,0,0,7.624-2.662,9.846,9.846,0,0,0,2.771-7.452v-3.1l-5.2.219q-6.2.219-8.939,1.925a5.81,5.81,0,0,0-2.739,5.307,5.357,5.357,0,0,0,1.706,4.29,7.082,7.082,0,0,0,4.777,1.475Z"/>
      <path id="Path_3010" data-name="Path 3010" class="cls-2" d="M264.3,35.986v3.288l-6.356.751a11.175,11.175,0,0,1,2.254,6.858,10.144,10.144,0,0,1-3.444,8.046q-3.444,3.006-9.455,3.006a15.655,15.655,0,0,1-2.881-.251Q241.1,59.439,241.1,62.1a2.243,2.243,0,0,0,1.158,2.082,8.459,8.459,0,0,0,3.976.673h6.074q5.572,0,8.563,2.348a8.159,8.159,0,0,1,2.99,6.825,9.742,9.742,0,0,1-4.571,8.688q-4.57,2.991-13.337,2.99-6.732,0-10.379-2.5a8.088,8.088,0,0,1-3.648-7.076,7.943,7.943,0,0,1,2-5.416,10.209,10.209,0,0,1,5.635-3.1,5.435,5.435,0,0,1-2.207-1.847,4.887,4.887,0,0,1-.892-2.912,5.524,5.524,0,0,1,1-3.287,10.517,10.517,0,0,1,3.162-2.724,9.266,9.266,0,0,1-4.336-3.726,10.949,10.949,0,0,1-1.675-6.011q0-5.635,3.381-8.689t9.581-3.053a17.449,17.449,0,0,1,4.853.626ZM236.932,76.063a4.658,4.658,0,0,0,2.349,4.226,12.969,12.969,0,0,0,6.731,1.44q6.543,0,9.691-1.956a5.992,5.992,0,0,0,3.146-5.307q0-2.788-1.722-3.867t-6.481-1.08h-6.231a8.207,8.207,0,0,0-5.51,1.69,6.044,6.044,0,0,0-1.973,4.854Zm2.818-29.086a6.985,6.985,0,0,0,2.036,5.447,8.121,8.121,0,0,0,5.667,1.847q7.607,0,7.607-7.388,0-7.734-7.7-7.735a7.628,7.628,0,0,0-5.635,1.973q-1.974,1.979-1.975,5.856Z"/>
      <path id="Path_3011" data-name="Path 3011" class="cls-2" d="M298.835,35.986v3.288l-6.356.751a11.166,11.166,0,0,1,2.255,6.858,10.147,10.147,0,0,1-3.444,8.046q-3.444,3.006-9.456,3.006a15.644,15.644,0,0,1-2.88-.251q-3.32,1.755-3.319,4.415a2.242,2.242,0,0,0,1.159,2.082,8.456,8.456,0,0,0,3.976.673h6.074q5.573,0,8.563,2.348a8.159,8.159,0,0,1,2.99,6.825,9.742,9.742,0,0,1-4.571,8.688q-4.572,2.991-13.338,2.99-6.732,0-10.379-2.5a8.087,8.087,0,0,1-3.647-7.076,7.942,7.942,0,0,1,2-5.416,10.212,10.212,0,0,1,5.636-3.1,5.429,5.429,0,0,1-2.207-1.847A4.887,4.887,0,0,1,271,62.85a5.524,5.524,0,0,1,1-3.287,10.517,10.517,0,0,1,3.162-2.724,9.275,9.275,0,0,1-4.336-3.726,10.949,10.949,0,0,1-1.675-6.011q0-5.635,3.382-8.689t9.58-3.053a17.439,17.439,0,0,1,4.853.626ZM271.471,76.063a4.659,4.659,0,0,0,2.348,4.226,12.973,12.973,0,0,0,6.732,1.44q6.543,0,9.69-1.956a5.991,5.991,0,0,0,3.147-5.307q0-2.788-1.723-3.867t-6.481-1.08h-6.23a8.2,8.2,0,0,0-5.51,1.69A6.044,6.044,0,0,0,271.471,76.063Zm2.818-29.086a6.985,6.985,0,0,0,2.035,5.447,8.123,8.123,0,0,0,5.667,1.847q7.608,0,7.608-7.388,0-7.734-7.7-7.735a7.628,7.628,0,0,0-5.635,1.973q-1.976,1.979-1.975,5.856Z"/>
      <path id="Path_3012" data-name="Path 3012" class="cls-2" d="M316.477,70.928q-7.606,0-12.006-4.634t-4.4-12.868q0-8.3,4.086-13.181A13.567,13.567,0,0,1,315.13,35.36a12.94,12.94,0,0,1,10.208,4.24q3.762,4.246,3.762,11.2v3.288H305.457q.156,6.042,3.052,9.173t8.156,3.131a27.629,27.629,0,0,0,10.958-2.317v4.634a27.541,27.541,0,0,1-5.212,1.706,29.262,29.262,0,0,1-5.934.513Zm-1.408-31.215a8.488,8.488,0,0,0-6.591,2.692,12.41,12.41,0,0,0-2.9,7.451h17.94q0-4.914-2.192-7.529a7.712,7.712,0,0,0-6.257-2.614Z"/>
      <path id="Path_3013" data-name="Path 3013" class="cls-2" d="M350.6,35.36a20.372,20.372,0,0,1,4.1.376l-.72,4.822a17.72,17.72,0,0,0-3.757-.47A9.144,9.144,0,0,0,343.1,43.47a12.326,12.326,0,0,0-2.959,8.422V70.3h-5.2V35.986h4.289l.6,6.357h.251a15.069,15.069,0,0,1,4.6-5.166A10.366,10.366,0,0,1,350.6,35.36Z"/>
      <path id="Path_3014" data-name="Path 3014" class="cls-2" d="M394.454,70.3H368.937V24.527h25.517v4.729H374.26V44h18.973v4.7H374.26V65.543h20.194Z"/>
      <path id="Path_3015" data-name="Path 3015" class="cls-2" d="M423.683,65.7H423.4q-3.6,5.231-10.77,5.229-6.734,0-10.473-4.6t-3.742-13.087q0-8.484,3.757-13.181t10.458-4.7q6.981,0,10.707,5.073h.407l-.219-2.474-.125-2.41V21.585h5.2V70.3h-4.227Zm-10.394.877q5.322,0,7.718-2.9t2.395-9.346v-1.1q0-7.294-2.427-10.41t-7.749-3.115a7.953,7.953,0,0,0-7,3.553Q403.8,46.821,403.8,53.3q0,6.574,2.41,9.925a8.166,8.166,0,0,0,7.079,3.351Z"/>
      <path id="Path_3016" data-name="Path 3016" class="cls-2" d="M435.918,26.688a3.449,3.449,0,0,1,.877-2.614,3.243,3.243,0,0,1,4.351.016,3.385,3.385,0,0,1,.909,2.6,3.442,3.442,0,0,1-.909,2.615,3.182,3.182,0,0,1-4.351,0,3.515,3.515,0,0,1-.877-2.617ZM441.554,70.3h-5.2V35.986h5.2Z"/>
      <path id="Path_3017" data-name="Path 3017" class="cls-2" d="M461.26,66.639a17.07,17.07,0,0,0,2.661-.2,17.339,17.339,0,0,0,2.035-.423v3.976a9.508,9.508,0,0,1-2.489.674,18.741,18.741,0,0,1-2.959.266q-9.955,0-9.956-10.489V40.025h-4.915v-2.5l4.915-2.161,2.191-7.326h3.006V35.99h9.956v4.039h-9.956v20.2a6.943,6.943,0,0,0,1.472,4.759,5.117,5.117,0,0,0,4.039,1.651Z"/>
      <path id="Path_3018" data-name="Path 3018" class="cls-2" d="M499.014,53.113q0,8.391-4.227,13.1t-11.68,4.712a15.478,15.478,0,0,1-8.171-2.16,14.264,14.264,0,0,1-5.51-6.2,21.6,21.6,0,0,1-1.941-9.455q0-8.389,4.2-13.072t11.647-4.681q7.2,0,11.443,4.79T499.014,53.113Zm-26.144,0q0,6.575,2.63,10.019t7.732,3.444q5.1,0,7.75-3.429t2.645-10.034q0-6.543-2.645-9.941t-7.812-3.4q-5.1,0-7.7,3.35T472.87,53.113Z"/>
      <path id="Path_3019" data-name="Path 3019" class="cls-2" d="M520.726,35.36a20.376,20.376,0,0,1,4.1.376l-.721,4.822a17.712,17.712,0,0,0-3.757-.47,9.145,9.145,0,0,0-7.123,3.382,12.335,12.335,0,0,0-2.958,8.422V70.3h-5.2V35.986h4.289l.6,6.357h.251a15.078,15.078,0,0,1,4.6-5.166A10.368,10.368,0,0,1,520.726,35.36Z"/>
      <path id="Path_3020" data-name="Path 3020" class="cls-2" d="M255.556,96.638s-3.43-.391-4.85-.391c-2.058,0-3.111.735-3.111,2.18,0,1.568.882,1.935,3.748,2.719,3.527.98,4.8,1.911,4.8,4.777,0,3.675-2.3,5.267-5.61,5.267a35.667,35.667,0,0,1-5.486-.662l.269-2.18s3.307.441,5.046.441c2.082,0,3.037-.931,3.037-2.7,0-1.421-.759-1.91-3.331-2.523-3.626-.93-5.193-2.033-5.193-4.948,0-3.381,2.229-4.776,5.585-4.776a37.222,37.222,0,0,1,5.316.587Z"/>
      <path id="Path_3021" data-name="Path 3021" class="cls-2" d="M262.666,94.14h4.728l3.748,13.106L274.89,94.14h4.752v16.78H276.9V96.42h-.144l-4.192,13.816h-2.841L265.53,96.418h-.145v14.5h-2.719Z"/>
      <path id="Path_3022" data-name="Path 3022" class="cls-2" d="M321.756,94.14H334v2.425h-4.728V110.92h-2.743V96.565h-4.777Z"/>
      <path id="Path_3023" data-name="Path 3023" class="cls-2" d="M345.837,94.14c3.331,0,5.119,1.249,5.119,4.361,0,2.033-.636,3.037-1.984,3.772,1.445.563,2.4,1.592,2.4,3.9,0,3.43-2.082,4.752-5.34,4.752h-6.566V94.14Zm-3.651,2.352v4.8h3.6c1.667,0,2.4-.832,2.4-2.474,0-1.617-.833-2.327-2.5-2.327Zm0,7.1v4.973h3.7c1.689,0,2.694-.539,2.694-2.548,0-1.911-1.421-2.425-2.743-2.425Z"/>
      <path id="Path_3024" data-name="Path 3024" class="cls-2" d="M358.113,94.14H368.7v2.377h-7.864v4.751h6.394V103.6h-6.394v4.924H368.7v2.4H358.113Z"/>
      <path id="Path_3025" data-name="Path 3025" class="cls-2" d="M378.446,94.14h5.414l4.164,16.78h-2.743l-1.24-4.92h-5.777l-1.239,4.923h-2.719Zm.362,9.456h4.707l-1.737-7.178h-1.225Z"/>
      <path id="Path_3026" data-name="Path 3026" class="cls-2" d="M396.8,105.947v4.973h-2.72V94.14h6.37c3.7,0,5.683,2.12,5.683,5.843,0,2.376-.956,4.519-2.744,5.352l2.769,5.585h-2.989l-2.425-4.973Zm3.65-9.455H396.8v7.1h3.7c2.058,0,2.841-1.85,2.841-3.589-.005-1.9-.935-3.511-2.895-3.511Z"/>
      <path id="Path_3027" data-name="Path 3027" class="cls-2" d="M289.712,94.14h5.413l4.165,16.78h-2.744L295.307,106H289.53l-1.239,4.923h-2.719Zm.361,9.456h4.707l-1.737-7.178h-1.224Z"/>
      <path id="Path_3028" data-name="Path 3028" class="cls-2" d="M308.061,105.947v4.973h-2.719V94.14h6.369c3.7,0,5.683,2.12,5.683,5.843,0,2.376-.955,4.519-2.743,5.352l2.768,5.585h-2.988l-2.426-4.973Zm3.65-9.455h-3.65v7.1h3.7c2.057,0,2.841-1.85,2.841-3.589C314.6,98.1,313.671,96.492,311.711,96.492Z"/>
      <path id="Path_3029" data-name="Path 3029" class="cls-2" d="M130.306,107.644a3.021,3.021,0,0,1-1.18,2.536,5.115,5.115,0,0,1-3.2.91,8.009,8.009,0,0,1-3.371-.565v-1.381a8.932,8.932,0,0,0,1.651.5,8.672,8.672,0,0,0,1.77.186,3.57,3.57,0,0,0,2.158-.544,1.782,1.782,0,0,0,.724-1.512,1.943,1.943,0,0,0-.257-1.049,2.382,2.382,0,0,0-.859-.755,12.173,12.173,0,0,0-1.833-.784,5.853,5.853,0,0,1-2.457-1.458,3.218,3.218,0,0,1-.737-2.2,2.734,2.734,0,0,1,1.07-2.266,4.44,4.44,0,0,1,2.832-.844,8.337,8.337,0,0,1,3.379.675l-.447,1.247a7.635,7.635,0,0,0-2.966-.641,2.877,2.877,0,0,0-1.778.489,1.613,1.613,0,0,0-.641,1.357,2.078,2.078,0,0,0,.236,1.049,2.218,2.218,0,0,0,.8.75,9.873,9.873,0,0,0,1.715.755,6.77,6.77,0,0,1,2.667,1.483,2.914,2.914,0,0,1,.724,2.062Z"/>
      <path id="Path_3030" data-name="Path 3030" class="cls-2" d="M134.147,101.686v5.992a2.41,2.41,0,0,0,.514,1.685,2.091,2.091,0,0,0,1.609.556,2.627,2.627,0,0,0,2.12-.792,4,4,0,0,0,.67-2.587v-4.854h1.4v9.236H139.3l-.2-1.238h-.076a2.8,2.8,0,0,1-1.192,1.045,4.019,4.019,0,0,1-1.74.361,3.527,3.527,0,0,1-2.524-.8,3.408,3.408,0,0,1-.839-2.561v-6.043Z"/>
      <path id="Path_3031" data-name="Path 3031" class="cls-2" d="M147.906,111.09a4,4,0,0,1-1.648-.332,3.113,3.113,0,0,1-1.251-1.024h-.1a12.458,12.458,0,0,1,.1,1.534v3.8h-1.4V101.686h1.137l.194,1.263h.068a3.244,3.244,0,0,1,1.256-1.094,3.81,3.81,0,0,1,1.643-.337,3.414,3.414,0,0,1,2.836,1.255,6.686,6.686,0,0,1-.018,7.057,3.417,3.417,0,0,1-2.817,1.26Zm-.2-8.385a2.48,2.48,0,0,0-2.047.784,4.03,4.03,0,0,0-.649,2.494v.312a4.616,4.616,0,0,0,.649,2.785,2.464,2.464,0,0,0,2.081.839,2.162,2.162,0,0,0,1.875-.97,4.588,4.588,0,0,0,.679-2.67,4.423,4.423,0,0,0-.679-2.65,2.232,2.232,0,0,0-1.915-.924Z"/>
      <path id="Path_3032" data-name="Path 3032" class="cls-2" d="M158.739,111.09a4,4,0,0,1-1.648-.332,3.113,3.113,0,0,1-1.251-1.024h-.1a12.461,12.461,0,0,1,.1,1.534v3.8h-1.4V101.686h1.137l.194,1.263h.068a3.244,3.244,0,0,1,1.256-1.094,3.81,3.81,0,0,1,1.643-.337,3.414,3.414,0,0,1,2.836,1.255,6.686,6.686,0,0,1-.018,7.057,3.417,3.417,0,0,1-2.817,1.26Zm-.2-8.385a2.48,2.48,0,0,0-2.048.784,4.03,4.03,0,0,0-.649,2.494v.312a4.616,4.616,0,0,0,.649,2.785,2.464,2.464,0,0,0,2.081.839,2.162,2.162,0,0,0,1.875-.97,4.588,4.588,0,0,0,.679-2.67,4.423,4.423,0,0,0-.679-2.65,2.231,2.231,0,0,0-1.91-.924Z"/>
      <path id="Path_3033" data-name="Path 3033" class="cls-2" d="M173.312,106.3a5.092,5.092,0,0,1-1.138,3.527,4,4,0,0,1-3.143,1.268,4.172,4.172,0,0,1-2.2-.581,3.843,3.843,0,0,1-1.482-1.669,5.8,5.8,0,0,1-.523-2.545,5.087,5.087,0,0,1,1.129-3.518,4,4,0,0,1,3.135-1.259,3.9,3.9,0,0,1,3.08,1.289A5.067,5.067,0,0,1,173.312,106.3Zm-7.037,0a4.384,4.384,0,0,0,.708,2.7,2.809,2.809,0,0,0,4.167,0,4.36,4.36,0,0,0,.713-2.7,4.294,4.294,0,0,0-.713-2.676,2.5,2.5,0,0,0-2.1-.914,2.462,2.462,0,0,0-2.073.9A4.344,4.344,0,0,0,166.275,106.3Z"/>
      <path id="Path_3034" data-name="Path 3034" class="cls-2" d="M180.224,101.518a5.5,5.5,0,0,1,1.1.1l-.193,1.3a4.8,4.8,0,0,0-1.012-.127,2.467,2.467,0,0,0-1.917.91,3.324,3.324,0,0,0-.8,2.268v4.955H176v-9.236h1.154l.161,1.71h.067a4.056,4.056,0,0,1,1.239-1.39,2.786,2.786,0,0,1,1.6-.49Z"/>
      <path id="Path_3035" data-name="Path 3035" class="cls-2" d="M187.062,109.936a4.53,4.53,0,0,0,.717-.055,4.647,4.647,0,0,0,.548-.113v1.07a2.613,2.613,0,0,1-.67.181,5.124,5.124,0,0,1-.8.071q-2.679,0-2.679-2.822v-5.5h-1.324V102.1l1.324-.581.589-1.973h.809v2.141h2.68v1.087h-2.68v5.436a1.868,1.868,0,0,0,.4,1.28,1.378,1.378,0,0,0,1.086.446Z"/>
      <path id="Path_3036" data-name="Path 3036" class="cls-2" d="M194.238,111.09a4.243,4.243,0,0,1-3.232-1.246,4.833,4.833,0,0,1-1.184-3.464,5.352,5.352,0,0,1,1.1-3.548,3.651,3.651,0,0,1,2.953-1.314,3.48,3.48,0,0,1,2.747,1.141,4.374,4.374,0,0,1,1.012,3.013v.885h-6.363a3.665,3.665,0,0,0,.822,2.468,2.839,2.839,0,0,0,2.2.844,7.453,7.453,0,0,0,2.95-.624v1.247a7.377,7.377,0,0,1-1.4.459,7.875,7.875,0,0,1-1.6.139Zm-.379-8.4a2.282,2.282,0,0,0-1.774.726,3.329,3.329,0,0,0-.78,2h4.829a3.073,3.073,0,0,0-.59-2.026,2.077,2.077,0,0,0-1.685-.7Z"/>
      <path id="Path_3037" data-name="Path 3037" class="cls-2" d="M206.65,109.684h-.075a3.289,3.289,0,0,1-2.9,1.406,3.428,3.428,0,0,1-2.819-1.238,5.452,5.452,0,0,1-1.007-3.523,5.548,5.548,0,0,1,1.011-3.548,3.4,3.4,0,0,1,2.815-1.263,3.359,3.359,0,0,1,2.882,1.365h.109l-.059-.666-.033-.649V97.81h1.4v13.112h-1.138Zm-2.8.235a2.55,2.55,0,0,0,2.077-.779,3.94,3.94,0,0,0,.645-2.516v-.3a4.638,4.638,0,0,0-.653-2.8,2.485,2.485,0,0,0-2.086-.839,2.142,2.142,0,0,0-1.883.957,4.754,4.754,0,0,0-.654,2.7,4.57,4.57,0,0,0,.649,2.672,2.2,2.2,0,0,0,1.908.905Z"/>
      <path id="Path_3038" data-name="Path 3038" class="cls-2" d="M220.411,101.534a3.437,3.437,0,0,1,2.828,1.243,6.659,6.659,0,0,1-.009,7.053,3.42,3.42,0,0,1-2.819,1.26,3.993,3.993,0,0,1-1.647-.332,3.109,3.109,0,0,1-1.252-1.024h-.1l-.295,1.188h-1V97.81h1.4v3.184q0,1.073-.067,1.922h.067a3.32,3.32,0,0,1,2.894-1.382Zm-.2,1.171a2.446,2.446,0,0,0-2.065.822,6.338,6.338,0,0,0,.017,5.553,2.466,2.466,0,0,0,2.082.839,2.16,2.16,0,0,0,1.921-.939,4.832,4.832,0,0,0,.632-2.7,4.645,4.645,0,0,0-.632-2.689,2.239,2.239,0,0,0-1.957-.886Z"/>
      <path id="Path_3039" data-name="Path 3039" class="cls-2" d="M225.458,101.686h1.5l2.022,5.267a20.027,20.027,0,0,1,.826,2.6h.067q.11-.431.46-1.471t2.287-6.4h1.5L230.152,112.2a5.256,5.256,0,0,1-1.378,2.212,2.933,2.933,0,0,1-1.934.653,5.645,5.645,0,0,1-1.264-.143V113.8a4.9,4.9,0,0,0,1.036.1,2.137,2.137,0,0,0,2.056-1.618l.514-1.314Z"/>
    </g>
  </g>
</svg>
