<svg xmlns="http://www.w3.org/2000/svg" width="24" height="24" viewBox="0 0 24 24"><g fill="#59656B"><path d="M7.392 17.77c-.157-.156-.54-.19-.712-.36-.213-.215-.206-.558-.41-.765-.162-.16-.437-.193-.573-.33-.157-.156-.17-.412-.27-.51-.216.803-.936 2.803-.468 3.273.47.472 2.112-.073 3.162-.58-.077-.078-.31-.127-.47-.285-.105-.106-.13-.315-.26-.444zM6.36 13.936c.234.236.62.236.86 0l8.584-8.584-.443-.444c-.238-.224-.614-.223-.848.012L6.36 13.076c-.24.235-.24.62 0 .86zM16.502 6.05l-8.407 8.405c-.384.385-.384 1.005 0 1.39l.04.042c.385.382 1.005.382 1.39 0l8.407-8.408-1.43-1.43zM19.028 8.575l-.442-.442-8.584 8.584c-.237.24-.237.624 0 .863.237.238.624.238.86 0l8.155-8.154c.235-.236.238-.61.01-.85z"/></g></svg>