<svg xmlns="http://www.w3.org/2000/svg" width="20" height="20" viewBox="0 0 20 20"><path fill="#ED2029" d="M10.577 1.59h.014c.32.005.61.187.755.47l7.72 15.094c.137.268.127.586-.032.844-.157.258-.435.414-.736.414H2.164c-.306 0-.59-.162-.746-.426-.153-.266-.158-.592-.01-.86L9.822 2.035c.154-.276.443-.445.757-.445zm6.308 15.094L10.543 4.288 3.635 16.684h13.25zM10.42 16.008c-.572 0-1.044-.46-1.044-1.045s.472-1.045 1.045-1.045 1.047.46 1.047 1.045-.474 1.045-1.046 1.045zm.877-3.52c0 .508-.36.912-.876.912s-.876-.404-.876-.912v-4.29c0-.507.36-.912.877-.912s.877.405.877.912v4.29z"/></svg>