<?xml version="1.0" encoding="utf-8"?>
<!-- Generator: Adobe Illustrator 16.0.0, SVG Export Plug-In . SVG Version: 6.00 Build 0)  -->
<!DOCTYPE svg PUBLIC "-//W3C//DTD SVG 1.1//EN" "http://www.w3.org/Graphics/SVG/1.1/DTD/svg11.dtd">
<svg version="1.1" id="Layer_1" xmlns="http://www.w3.org/2000/svg" xmlns:xlink="http://www.w3.org/1999/xlink" x="0px" y="0px"
	 width="112.333px" height="50.814px" viewBox="0 0 112.333 50.814" enable-background="new 0 0 112.333 50.814"
	 xml:space="preserve">
<g>
	<path fill="#FFFFFF" d="M15.998,28.059c2.602,0,3.86-2.646,3.86-5.045c0-2.401-1.219-5.11-3.86-5.11
		c-2.754,0-3.969,2.709-3.969,5.11C12.029,25.412,13.283,28.059,15.998,28.059 M24.868,29.172c0,1.279,0,3.271-2.402,3.271
		c-1.466,0-2.052-0.81-2.404-2.125c-1.282,1.529-2.85,2.328-4.768,2.328c-4.69,0-8.273-4.004-8.273-9.633
		c0-5.499,3.687-9.708,8.273-9.708c1.846,0,3.654,0.728,4.768,2.292c0.139-1.218,1.189-2.083,2.404-2.083
		c2.402,0,2.402,1.984,2.402,3.275V29.172z"/>
	<path fill="#FFFFFF" d="M35.22,28.057c2.602,0,3.89-2.718,3.89-5.043c0-2.364-1.289-5.112-3.89-5.112
		c-2.687,0-3.933,2.5-3.933,4.937C31.287,25.276,32.464,28.057,35.22,28.057 M26.277,16.3c0-1.667,1.038-2.784,2.502-2.784
		c1.384,0,2.192,0.771,2.508,2.083c0.935-1.527,2.885-2.292,4.768-2.292c5.38,0,8.06,5.044,8.06,9.91
		c0,4.734-3.19,9.431-8.236,9.431c-1.576,0-3.271-0.597-4.591-1.739v6.12c0,1.666-1.044,2.779-2.508,2.779
		c-1.464,0-2.502-1.113-2.502-2.779L26.277,16.3L26.277,16.3z"/>
	<path fill="#FFFFFF" d="M45.301,16.3c0-1.667,1.041-2.784,2.504-2.784c1.46,0,2.504,1.117,2.504,2.784V29.65
		c0,1.677-1.044,2.793-2.504,2.793c-1.463,0-2.504-1.116-2.504-2.793V16.3z M50.625,8.752c0,1.57-1.256,2.886-2.821,2.886
		c-1.498,0-2.819-1.354-2.819-2.886C44.985,7.326,46.306,6,47.804,6C49.299,6,50.625,7.293,50.625,8.752"/>
	<path fill="#FFFFFF" d="M60.396,17.904c-2.612,0-3.897,2.709-3.897,5.032c0,2.683,1.285,5.123,3.897,5.123
		c2.679,0,3.931-2.509,3.931-4.94C64.327,20.683,63.143,17.904,60.396,17.904 M69.334,30.773c0,6.017-3.936,9.033-9.627,9.033
		c-2.061,0-7.903-1.009-7.903-3.748c0-0.949,1.042-2.201,2.017-2.201c1.598,0,3.37,1.574,6.266,1.574c2.431,0,4.24-1.427,4.24-3.972
		v-1.178H64.26c-1.055,1.53-2.75,2.358-5.053,2.358c-5.245,0-7.717-4.627-7.717-9.604c0-5.041,3.202-9.736,8.245-9.736
		c1.705,0,3.65,0.767,4.592,2.292c0.312-1.312,1.107-2.084,2.506-2.084c1.463,0,2.502,1.118,2.502,2.788V30.773z"/>
	<path fill="#FFFFFF" d="M83.211,21.314c-0.277-2.196-1.666-3.829-3.996-3.829c-2.229,0-3.73,1.699-3.971,3.829H83.211z
		 M75.354,24.652c0.348,2.464,2.402,3.613,4.727,3.613c2.578,0,4.354-2.021,5.672-2.021c1.08,0,2.059,1.075,2.059,2.157
		c0,2.149-4.455,4.238-8.182,4.238c-5.635,0-9.391-4.104-9.391-9.636c0-5.071,3.686-9.704,8.979-9.704c5.426,0,9.01,4.94,9.01,9.112
		c0,1.5-0.662,2.231-2.195,2.231H75.354V24.652z"/>
	<path fill="#FFFFFF" d="M102.004,21.375c-0.273-2.192-1.67-3.828-3.998-3.828c-2.229,0-3.729,1.703-3.965,3.828H102.004z
		 M94.146,24.713c0.353,2.479,2.396,3.617,4.729,3.617c2.565,0,4.347-2.021,5.664-2.021c1.082,0,2.058,1.073,2.058,2.151
		c0,2.156-4.455,4.246-8.171,4.246c-5.641,0-9.395-4.104-9.395-9.635c0-5.083,3.688-9.704,8.975-9.704
		c5.426,0,9.016,4.938,9.016,9.109c0,1.502-0.662,2.229-2.205,2.229h-10.67L94.146,24.713L94.146,24.713z"/>
</g>
</svg>
