<?xml version="1.0" encoding="utf-8"?>
<!-- Generator: Adobe Illustrator 16.0.0, SVG Export Plug-In . SVG Version: 6.00 Build 0)  -->
<!DOCTYPE svg PUBLIC "-//W3C//DTD SVG 1.1//EN" "http://www.w3.org/Graphics/SVG/1.1/DTD/svg11.dtd">
<svg version="1.1" id="Layer_1" xmlns="http://www.w3.org/2000/svg" xmlns:xlink="http://www.w3.org/1999/xlink" x="0px" y="0px"
	 width="24px" height="24px" viewBox="0 0 24 24" enable-background="new 0 0 24 24" xml:space="preserve">
<g>
	<path fill="#59656B" d="M7.392,17.769c-0.157-0.155-0.539-0.188-0.712-0.36c-0.213-0.214-0.206-0.557-0.411-0.764
		c-0.161-0.16-0.436-0.193-0.572-0.329c-0.157-0.157-0.171-0.413-0.27-0.511c-0.216,0.803-0.936,2.803-0.468,3.273
		c0.472,0.472,2.113-0.073,3.163-0.58c-0.077-0.078-0.311-0.127-0.469-0.285C7.547,18.107,7.521,17.898,7.392,17.769z"/>
	<path fill="#59656B" d="M6.359,13.936c0.235,0.236,0.622,0.236,0.86,0l8.585-8.584l-0.443-0.444
		c-0.239-0.224-0.615-0.223-0.849,0.012l-8.153,8.156C6.121,13.311,6.121,13.697,6.359,13.936z"/>
	<path fill="#59656B" d="M16.502,6.049l-8.407,8.406c-0.384,0.385-0.384,1.005-0.001,1.391l0.041,0.041
		c0.385,0.382,1.005,0.382,1.391,0l8.406-8.408L16.502,6.049z"/>
	<path fill="#59656B" d="M19.028,8.575l-0.442-0.442l-8.584,8.584c-0.237,0.24-0.237,0.624,0,0.863c0.237,0.238,0.624,0.238,0.861,0
		l8.154-8.154C19.252,9.19,19.255,8.815,19.028,8.575z"/>
</g>
</svg>
