<svg xmlns="http://www.w3.org/2000/svg" width="112.333" height="50.814" viewBox="0 0 112.333 50.814"><g fill="#fff"><path d="M15.998 28.06c2.602 0 3.86-2.647 3.86-5.046 0-2.4-1.22-5.11-3.86-5.11-2.754 0-3.97 2.71-3.97 5.11 0 2.398 1.255 5.045 3.97 5.045m8.87 1.112c0 1.28 0 3.27-2.402 3.27-1.466 0-2.052-.81-2.404-2.124-1.282 1.53-2.85 2.328-4.768 2.328-4.69 0-8.273-4.004-8.273-9.633 0-5.5 3.688-9.708 8.274-9.708 1.846 0 3.654.728 4.768 2.292.14-1.218 1.19-2.083 2.404-2.083 2.402 0 2.402 1.984 2.402 3.275V29.17zM35.22 28.057c2.602 0 3.89-2.718 3.89-5.043 0-2.364-1.29-5.112-3.89-5.112-2.687 0-3.933 2.5-3.933 4.937 0 2.436 1.177 5.217 3.933 5.217M26.277 16.3c0-1.667 1.038-2.784 2.502-2.784 1.383 0 2.19.77 2.507 2.083.935-1.528 2.885-2.293 4.768-2.293 5.38 0 8.06 5.044 8.06 9.91 0 4.734-3.19 9.43-8.236 9.43-1.577 0-3.272-.596-4.592-1.738v6.12c0 1.665-1.044 2.778-2.508 2.778s-2.502-1.113-2.502-2.78V16.3zM45.3 16.3c0-1.667 1.042-2.784 2.505-2.784 1.46 0 2.504 1.117 2.504 2.784v13.35c0 1.677-1.045 2.793-2.505 2.793-1.463 0-2.504-1.116-2.504-2.793V16.3zm5.325-7.548c0 1.57-1.256 2.886-2.82 2.886-1.5 0-2.82-1.354-2.82-2.886 0-1.426 1.32-2.752 2.82-2.752 1.494 0 2.82 1.293 2.82 2.752"/><path d="M60.396 17.904c-2.612 0-3.897 2.71-3.897 5.032 0 2.683 1.284 5.123 3.896 5.123 2.68 0 3.93-2.51 3.93-4.94 0-2.437-1.183-5.216-3.93-5.216m8.938 12.87c0 6.016-3.936 9.032-9.627 9.032-2.06 0-7.903-1.01-7.903-3.748 0-.95 1.042-2.2 2.017-2.2 1.6 0 3.37 1.573 6.267 1.573 2.43 0 4.24-1.426 4.24-3.97v-1.18h-.067c-1.055 1.53-2.75 2.36-5.053 2.36-5.245 0-7.717-4.628-7.717-9.605 0-5.04 3.202-9.736 8.245-9.736 1.705 0 3.65.766 4.592 2.29.312-1.31 1.107-2.083 2.506-2.083 1.463 0 2.502 1.118 2.502 2.788v14.478zM83.21 21.314c-.276-2.196-1.665-3.83-3.995-3.83-2.23 0-3.73 1.7-3.97 3.83h7.966zm-7.856 3.338c.348 2.464 2.402 3.613 4.727 3.613 2.58 0 4.355-2.02 5.673-2.02 1.08 0 2.06 1.074 2.06 2.156 0 2.15-4.456 4.24-8.183 4.24-5.635 0-9.39-4.105-9.39-9.637 0-5.07 3.685-9.704 8.978-9.704 5.426 0 9.01 4.94 9.01 9.11 0 1.5-.662 2.232-2.195 2.232h-10.68v.01zM102.004 21.375c-.273-2.192-1.67-3.828-3.998-3.828-2.23 0-3.73 1.703-3.965 3.828h7.964zm-7.858 3.338c.353 2.48 2.396 3.617 4.73 3.617 2.564 0 4.346-2.02 5.663-2.02 1.08 0 2.057 1.072 2.057 2.15 0 2.156-4.455 4.246-8.17 4.246-5.642 0-9.396-4.104-9.396-9.635 0-5.082 3.69-9.703 8.976-9.703 5.426 0 9.016 4.938 9.016 9.11 0 1.5-.662 2.228-2.205 2.228h-10.67v.008z"/></g></svg>