<?xml version="1.0" encoding="utf-8"?>
<!-- Generator: Adobe Illustrator 16.0.0, SVG Export Plug-In . SVG Version: 6.00 Build 0)  -->
<!DOCTYPE svg PUBLIC "-//W3C//DTD SVG 1.1//EN" "http://www.w3.org/Graphics/SVG/1.1/DTD/svg11.dtd">
<svg version="1.1" id="Layer_1" xmlns="http://www.w3.org/2000/svg" xmlns:xlink="http://www.w3.org/1999/xlink" x="0px" y="0px"
	 width="20px" height="20px" viewBox="0 0 20 20" enable-background="new 0 0 20 20" xml:space="preserve">
<g>
	<g>
		<path fill="#ED2029" d="M10.577,1.589c0.005,0,0.009,0,0.014,0c0.319,0.006,0.608,0.188,0.754,0.472l7.721,15.093
			c0.136,0.268,0.126,0.586-0.033,0.844c-0.157,0.258-0.435,0.414-0.736,0.414H2.164c-0.306,0-0.589-0.162-0.746-0.426
			c-0.153-0.266-0.158-0.592-0.009-0.859L9.821,2.034C9.974,1.758,10.263,1.589,10.577,1.589z M16.885,16.684L10.543,4.288
			L3.635,16.684H16.885z"/>
	</g>
	<g>
		<path fill="#ED2029" d="M10.421,16.008c-0.573,0-1.045-0.461-1.045-1.045s0.472-1.045,1.045-1.045
			c0.572,0,1.046,0.461,1.046,1.045S10.993,16.008,10.421,16.008z M11.297,12.488c0,0.508-0.36,0.912-0.876,0.912
			c-0.517,0-0.877-0.404-0.877-0.912v-4.29c0-0.507,0.36-0.912,0.877-0.912c0.516,0,0.876,0.405,0.876,0.912V12.488z"/>
	</g>
</g>
</svg>
